#!OML:ASF X:\für Bonn\!DataBase\2005_08_11_Bastian_Final\c3d\Bastian.ASF
:FULLY-SPECIFIED
:DEGREES
48
root -0.251495 14.48 6.14132 167.954 -10.5592 -177.654
lowerback 17.7563 -3.22055 0.280806
upperback 5.80895 -5.05483 -0.328276
thorax -3.7441 -2.85131 0.556362
lowerneck -4.93617 -8.36765 -6.16254
upperneck -7.86061 -9.8443 12.9389
head -0.511089 -4.62901 4.70062
rclavicle -3.08116e-015 1.66979e-014
rhumerus 67.4178 15.324 -5.71317
rradius 41.7759
rwrist -46.2306
rhand -42.9031 -4.52526
rfingers 7.12502
rthumb -15.7651 -33.9032
lclavicle -3.08116e-015 1.66979e-014
lhumerus 58.7828 -14.6488 11.8844
lradius 34.0962
lwrist -5.25658
lhand -43.4307 8.51872
lfingers 7.12502
lthumb -16.2731 37.8559
rfemur -20.2592 -18.4702 21.2374
rtibia 80.2904
rfoot -40.5254 -5.28168
rtoes -0.356431
lfemur -23.3929 0.0392904 -17.5294
ltibia 81.5049
lfoot -35.08 -14.2302
ltoes -0.894543
49
root -0.250753 14.2971 6.13124 167.965 -10.5526 -177.481
lowerback 17.7962 -3.24217 0.499971
upperback 5.75344 -5.03476 -0.280162
thorax -3.83687 -2.8369 0.486073
lowerneck -4.92368 -8.38111 -6.09787
upperneck -7.95437 -9.84868 12.9399
head -0.543342 -4.63169 4.69367
rclavicle 3.51849e-014 -1.51076e-014
rhumerus 67.4538 14.9228 -5.04397
rradius 41.8872
rwrist -46.8819
rhand -42.8244 -4.6758
rfingers 7.12502
rthumb -15.6892 -34.0597
lclavicle 3.51849e-014 -1.51076e-014
lhumerus 59.0721 -14.3515 11.3623
lradius 33.8434
lwrist -5.36265
lhand -43.2923 8.42939
lfingers 7.12502
lthumb -16.1399 37.7774
rfemur -21.2967 -18.71 21.4388
rtibia 82.4475
rfoot -41.4446 -5.36834
rtoes -0.48865
lfemur -24.655 0.0534919 -17.3132
ltibia 83.9695
lfoot -35.7211 -14.5571
ltoes -0.218292
50
root -0.249957 14.1128 6.12281 167.965 -10.5333 -177.305
lowerback 17.8646 -3.26956 0.725628
upperback 5.71622 -5.02558 -0.246567
thorax -3.92685 -2.82982 0.400379
lowerneck -4.94803 -8.39459 -6.02234
upperneck -8.05713 -9.84649 12.9668
head -0.571786 -4.62883 4.6917
rclavicle -9.28324e-014 1.55052e-014
rhumerus 67.5099 14.4959 -4.50811
rradius 41.9527
rwrist -47.4393
rhand -42.7236 -4.81848
rfingers 7.12502
rthumb -15.5922 -34.21
lclavicle -9.28324e-014 1.55052e-014
lhumerus 59.3865 -14.0447 10.6398
lradius 33.6274
lwrist -5.27613
lhand -43.1702 8.31698
lfingers 7.12502
lthumb -16.0222 37.6745
rfemur -22.347 -18.9255 21.6557
rtibia 84.6302
rfoot -42.3106 -5.45969
rtoes -0.527907
lfemur -25.9365 0.131202 -17.0802
ltibia 86.4301
lfoot -36.2789 -14.8881
ltoes 0.263862
51
root -0.249748 13.9271 6.11512 167.992 -10.5049 -177.156
lowerback 17.9481 -3.28844 0.923238
upperback 5.64555 -5.00393 -0.203963
thorax -4.05725 -2.81464 0.339809
lowerneck -4.96562 -8.40177 -5.94678
upperneck -8.12942 -9.84413 12.9533
head -0.595047 -4.62704 4.67722
rclavicle 4.01048e-014 6.36111e-015
rhumerus 67.5257 14.1146 -4.12408
rradius 41.9911
rwrist -47.8523
rhand -42.5679 -4.9776
rfingers 7.12502
rthumb -15.4422 -34.3808
lclavicle 4.01048e-014 6.36111e-015
lhumerus 59.6661 -13.7822 9.93372
lradius 33.4367
lwrist -5.17055
lhand -43.051 8.23998
lfingers 7.12502
lthumb -15.9075 37.6066
rfemur -23.4248 -19.0893 21.8689
rtibia 86.8283
rfoot -43.1762 -5.65905
rtoes -0.823908
lfemur -27.246 0.223178 -16.8811
ltibia 88.8773
lfoot -36.8146 -15.1631
ltoes 0.508447
52
root -0.249052 13.7399 6.10891 167.985 -10.4748 -177.023
lowerback 18.0941 -3.29933 1.10907
upperback 5.59109 -4.97831 -0.181008
thorax -4.20396 -2.79961 0.26802
lowerneck -5.00642 -8.4204 -5.86394
upperneck -8.21813 -9.85014 12.9717
head -0.616932 -4.62765 4.67022
rclavicle 1.41634e-014 -1.07344e-014
rhumerus 67.4981 13.7655 -3.92503
rradius 41.9702
rwrist -48.0937
rhand -42.3747 -5.07274
rfingers 7.12502
rthumb -15.2561 -34.4901
lclavicle 1.41634e-014 -1.07344e-014
lhumerus 59.9942 -13.5461 9.09488
lradius 33.2707
lwrist -4.91381
lhand -42.9715 8.15662
lfingers 7.12502
lthumb -15.8309 37.5294
rfemur -24.4513 -19.226 22.0499
rtibia 89.0282
rfoot -44.0021 -5.71738
rtoes -0.734779
lfemur -28.5137 0.328632 -16.6914
ltibia 91.3053
lfoot -37.3091 -15.4153
ltoes 0.618514
53
root -0.248192 13.5456 6.10579 168.025 -10.4376 -176.895
lowerback 18.2222 -3.31439 1.28164
upperback 5.51861 -4.9559 -0.145659
thorax -4.35828 -2.78507 0.21673
lowerneck -5.068 -8.42871 -5.77939
upperneck -8.29479 -9.84475 12.96
head -0.635005 -4.62192 4.65335
rclavicle -7.22582e-014 1.15295e-014
rhumerus 67.4447 13.5079 -3.99204
rradius 41.8833
rwrist -48.0445
rhand -42.2086 -5.04766
rfingers 7.12502
rthumb -15.0962 -34.4772
lclavicle -7.22582e-014 1.15295e-014
lhumerus 60.2703 -13.3298 8.25244
lradius 33.129
lwrist -4.62105
lhand -42.9285 8.10431
lfingers 7.12502
lthumb -15.7895 37.4804
rfemur -25.5717 -19.3527 22.2592
rtibia 91.277
rfoot -44.7717 -5.80327
rtoes -0.779694
lfemur -29.848 0.462967 -16.4946
ltibia 93.7484
lfoot -37.8072 -15.6459
ltoes 0.46271
54
root -0.247077 13.3483 6.10289 168.062 -10.3889 -176.746
lowerback 18.3705 -3.32595 1.4754
upperback 5.43403 -4.92255 -0.108555
thorax -4.53744 -2.76493 0.154932
lowerneck -5.11835 -8.44376 -5.70258
upperneck -8.34876 -9.85159 12.9659
head -0.645648 -4.62284 4.64222
rclavicle -4.56211e-014 9.14409e-015
rhumerus 67.3324 13.3497 -4.30962
rradius 41.7457
rwrist -47.7449
rhand -42.0665 -5.03859
rfingers 7.12502
rthumb -14.9592 -34.4783
lclavicle -4.56211e-014 9.14409e-015
lhumerus 60.5238 -13.159 7.51132
lradius 32.9861
lwrist -4.32246
lhand -42.8697 7.9961
lfingers 7.12502
lthumb -15.7329 37.3766
rfemur -26.7113 -19.3916 22.512
rtibia 93.5397
rfoot -45.4368 -5.86548
rtoes -0.647675
lfemur -31.1706 0.62351 -16.2698
ltibia 96.1861
lfoot -38.2677 -15.8432
ltoes 0.158548
